<mxfile host="app.diagrams.net" modified="2024-01-10T19:46:21.021Z" agent="Mozilla/5.0 (Windows NT 10.0; Win64; x64; rv:121.0) Gecko/20100101 Firefox/121.0" etag="tnjevExs780ILI_qUCqu" version="22.1.16" type="github">
  <diagram name="Page-1" id="mOO7gFAYj1azY0RGw_VR">
    <mxGraphModel dx="1434" dy="754" grid="1" gridSize="10" guides="1" tooltips="1" connect="1" arrows="1" fold="1" page="1" pageScale="1" pageWidth="827" pageHeight="1169" math="0" shadow="0">
      <root>
        <mxCell id="0" />
        <mxCell id="1" parent="0" />
        <mxCell id="NiLcynyr0PVSU_E-XXbl-3" value="" style="edgeStyle=orthogonalEdgeStyle;rounded=0;orthogonalLoop=1;jettySize=auto;html=1;fillColor=#f8cecc;strokeColor=#b85450;" edge="1" parent="1" source="NiLcynyr0PVSU_E-XXbl-1" target="NiLcynyr0PVSU_E-XXbl-2">
          <mxGeometry relative="1" as="geometry" />
        </mxCell>
        <mxCell id="NiLcynyr0PVSU_E-XXbl-1" value="RFP-1368" style="ellipse;whiteSpace=wrap;html=1;aspect=fixed;fillColor=#e1d5e7;strokeColor=#9673a6;fontFamily=Lucida Console;" vertex="1" parent="1">
          <mxGeometry x="370" y="350" width="80" height="80" as="geometry" />
        </mxCell>
        <mxCell id="NiLcynyr0PVSU_E-XXbl-5" value="" style="edgeStyle=orthogonalEdgeStyle;rounded=0;orthogonalLoop=1;jettySize=auto;html=1;fillColor=#f8cecc;strokeColor=#b85450;" edge="1" parent="1" source="NiLcynyr0PVSU_E-XXbl-2" target="NiLcynyr0PVSU_E-XXbl-4">
          <mxGeometry relative="1" as="geometry" />
        </mxCell>
        <mxCell id="NiLcynyr0PVSU_E-XXbl-2" value="On formConsultaNfeNfce when sending some nfce/nfe having some problems authorizing it and don&#39;t show any error" style="whiteSpace=wrap;html=1;fontFamily=Lucida Console;fillColor=#f8cecc;strokeColor=#b85450;" vertex="1" parent="1">
          <mxGeometry x="140" y="340" width="170" height="100" as="geometry" />
        </mxCell>
        <mxCell id="NiLcynyr0PVSU_E-XXbl-4" value="The problems with some sells made on a previous version 1.4.147 and can&#39;t send it on new versions since is missing some properties on database" style="whiteSpace=wrap;html=1;fontFamily=Lucida Console;fillColor=#f8cecc;strokeColor=#b85450;" vertex="1" parent="1">
          <mxGeometry x="130" y="150" width="190" height="90" as="geometry" />
        </mxCell>
      </root>
    </mxGraphModel>
  </diagram>
</mxfile>
